<?xml version="1.0" encoding="UTF-8"?>
<svg width="16px" height="16px" viewBox="0 0 16 16" version="1.1" xmlns="http://www.w3.org/2000/svg" xmlns:xlink="http://www.w3.org/1999/xlink">
    <title>icon/action/add</title>
    <g id="Symbols" stroke="none" stroke-width="1" fill="none" fill-rule="evenodd">
        <g id="buttons/8.-icon-button/icon-right" transform="translate(-65.000000, -12.000000)" fill="#535F61">
            <g id="icon/action/add" transform="translate(65.000000, 12.000000)">
                <path d="M13.828095,0 C14.4045524,0 14.9566598,0.228677298 15.3642559,0.636273407 C15.7713227,1.04334017 16.0005293,1.59597697 16.0005293,2.17190498 C16.0005293,5.22993449 16.0005293,10.7705949 16.0005293,13.828095 C16.0005293,14.404023 15.7713227,14.9566598 15.3642559,15.3642559 C14.9566598,15.7713227 14.4045524,16 13.828095,16 C10.7705949,16 5.22993449,16 2.17243433,16 C1.59597697,16 1.04386952,15.7713227 0.636273407,15.3642559 C0.229206643,14.9566598 0,14.404023 0,13.828095 C0,10.7705949 0,5.22993449 0,2.17190498 C0,1.59597697 0.229206643,1.04334017 0.636273407,0.636273407 C1.04386952,0.228677298 1.59597697,0 2.17243433,0 C5.22993449,0 10.7705949,0 13.828095,0 Z M7.19327731,7.19380666 L7.19221862,3.67736386 C7.19221862,3.23165487 7.55323232,2.87064059 7.99841196,2.87064059 C7.99841196,2.87064059 7.99841196,2.87064059 7.99841196,2.87064059 C8.44412096,2.87011182 8.80513465,3.23112552 8.80513465,3.67683451 L8.80672269,7.19327731 L12.3231655,7.19221862 C12.7688745,7.19221862 13.1298882,7.55323232 13.1298882,7.99841196 C13.1298882,7.99841196 13.1298882,7.99841196 13.1298882,7.99841196 C13.1298882,8.44412096 12.7694038,8.80513465 12.3236948,8.80513465 L8.80725203,8.80619334 L8.80831073,12.3231655 C8.80831073,12.7683451 8.44729703,13.1298882 8.00211738,13.1298882 C8.00211738,13.1298882 8.00211738,13.1298882 8.00211738,13.1298882 C7.55640839,13.1298882 7.19539469,12.7688745 7.19539469,12.3236948 L7.19380666,8.80672269 L3.67736386,8.80778138 C3.23165487,8.80831073 2.87064117,8.44729703 2.87064117,8.00158804 C2.87064117,8.00158804 2.87064117,8.00158804 2.87064117,8.00158804 C2.87064117,7.55640839 3.23112552,7.19539469 3.67683451,7.19486535 L7.19327731,7.19380666 L7.19327731,7.19380666 Z" id="Shape"></path>
            </g>
        </g>
    </g>
</svg>