<?xml version="1.0" encoding="UTF-8"?>
<svg width="22px" height="23px" viewBox="0 0 22 23" version="1.1" xmlns="http://www.w3.org/2000/svg" xmlns:xlink="http://www.w3.org/1999/xlink">
    <title>2EF52E39-DAA3-4C96-81B4-11D02AD4016A</title>
    <defs>
        <polygon id="path-1" points="0 0 21.9503922 0 21.9503922 21.8224356 0 21.8224356"></polygon>
    </defs>
    <g id="Page-1" stroke="none" stroke-width="1" fill="none" fill-rule="evenodd">
        <g id="DS-component-alerts" transform="translate(-366.000000, -483.000000)">
            <g id="alert/announcement-copy" transform="translate(336.000000, 456.000000)">
                <g id="icon-danger" transform="translate(30.000000, 27.177467)">
                    <g id="Group-3">
                        <mask id="mask-2" fill="white">
                            <use xlink:href="#path-1"></use>
                        </mask>
                        <g id="Clip-2"></g>
                        <path d="M10.1816863,0.516657778 L0.122078431,20.2633689 C-0.130705882,20.7615467 0.0215686275,21.39808 0.461568627,21.6845689 C0.600039216,21.7740356 0.756196078,21.8219467 0.915803922,21.8224356 L21.0350196,21.8224356 C21.5423137,21.82048 21.9521176,21.3526133 21.9503976,20.7771911 C21.9499608,20.5967911 21.9081176,20.4198133 21.8287451,20.2633689 L11.7691373,0.516657778 C11.5133333,0.0199466667 10.9508235,-0.147742222 10.512549,0.14168 C10.3753725,0.232124444 10.2614902,0.36168 10.1816863,0.516657778" id="Fill-1" fill="#E71313" mask="url(#mask-2)"></path>
                    </g>
                    <path d="M9.54592028,14.8032254 L9.16606273,7.52253333 L11.7950768,7.52253333 L11.4307135,14.8032254 L9.54592028,14.8032254 Z M9.00112458,17.0650938 C9.00112458,16.26082 9.67237286,15.6089553 10.5005623,15.6089553 C11.3287517,15.6089553 12,16.26082 12,17.0650938 C12,17.8693675 11.3287517,18.5212322 10.5005623,18.5212322 C9.70636011,18.554238 9.03511183,17.9552797 9.00112458,17.1840117 C8.99962514,17.1442106 8.99962514,17.1048949 9.00112458,17.0650938 L9.00112458,17.0650938 Z" id="Fill-4" fill="#FFFFFF"></path>
                </g>
            </g>
        </g>
    </g>
</svg>