<?xml version="1.0" encoding="UTF-8"?>
<svg width="16px" height="16px" viewBox="0 0 16 16" version="1.1" xmlns="http://www.w3.org/2000/svg" xmlns:xlink="http://www.w3.org/1999/xlink">
    <title>DD515DB3-78D2-4421-9DD9-05EAE807B09F</title>
    <g id="Page-1" stroke="none" stroke-width="1" fill="none" fill-rule="evenodd">
        <g id="ds-iconography" transform="translate(-472.000000, -657.000000)" fill="#646C73">
            <g id="icon/action/upload" transform="translate(472.000000, 657.000000)">
                <path d="M14,0 C15.1045695,-2.02906125e-16 16,0.8954305 16,2 L16,14 C16,15.1045695 15.1045695,16 14,16 L2,16 C0.8954305,16 1.3527075e-16,15.1045695 0,14 L0,2 C-1.3527075e-16,0.8954305 0.8954305,2.02906125e-16 2,0 L14,0 Z M3.77055461,9.2663218 C3.60935287,9.16946287 3.40785939,9.16946287 3.24665766,9.2663218 C3.08545592,9.36318074 2.9908591,9.54108819 3.00069939,9.72889347 L3.00069939,9.72889347 L3.00069939,12.3666643 L13,12.3666643 L13,9.72889347 L12.9942714,9.64851821 C12.9782433,9.54278919 12.9291541,9.44404261 12.8529933,9.36704491 C12.7577923,9.27079779 12.6281485,9.21647602 12.4927728,9.2161097 C12.2121965,9.21687526 11.9849349,9.44413694 11.9841693,9.72471316 L11.9841693,9.72471316 L11.9841693,11.3508508 L4.01651288,11.3508508 L4.01651288,9.72889347 L4.01290508,9.63614505 C3.99297076,9.48403705 3.90488939,9.34703758 3.77055461,9.2663218 Z M8.00034108,3 L5.13404706,5.87186776 L5.07654977,5.94052462 C4.99186286,6.06201257 4.963613,6.21608447 5.00271373,6.36201038 C5.0496346,6.53712147 5.18641193,6.6738988 5.36152302,6.72081968 C5.53663412,6.76774055 5.72347543,6.71767657 5.85166564,6.58530604 L5.85166564,6.58530604 L7.49313106,4.94384063 L7.49313106,10.0521702 L7.50130289,10.1433418 C7.54424934,10.3799545 7.75134165,10.5593802 8.00034108,10.5593802 C8.28046545,10.5593802 8.50755111,10.3322945 8.50755111,10.0521702 L8.50755111,10.0521702 L8.50755111,4.94384063 L10.1490165,6.58530604 L10.2164581,6.65022788 C10.337333,6.7467596 10.4975194,6.78395221 10.6512645,6.74706971 C10.8357587,6.70281071 10.9801257,6.55928468 11.0254618,6.37505227 C11.0707979,6.19081985 11.0095218,5.99668897 10.8666351,5.87186776 L10.8666351,5.87186776 L8.00034108,3 Z" id="Combined-Shape"></path>
            </g>
        </g>
    </g>
</svg>