<?xml version="1.0" encoding="UTF-8"?>
<svg width="14px" height="16px" viewBox="0 0 14 16" version="1.1" xmlns="http://www.w3.org/2000/svg" xmlns:xlink="http://www.w3.org/1999/xlink">
    <title>9F76162C-C83F-4F9D-8AFB-CF6A64A81F7F</title>
    <g id="Page-1" stroke="none" stroke-width="1" fill="none" fill-rule="evenodd">
        <g id="DS-component-datepicker" transform="translate(-464.000000, -363.000000)" fill="#646C73" fill-rule="nonzero">
            <g id="form/datepicker/datepicker" transform="translate(323.000000, 351.000000)">
                <g id="icon-calendar" transform="translate(141.000000, 12.000000)">
                    <path d="M0,3.2 C0,2.32 0.7,1.6 1.55555556,1.6 L12.4444444,1.6 C13.3035541,1.6 14,2.3163444 14,3.2 L14,14.4 C14,15.2836556 13.3035541,16 12.4444444,16 L1.55555556,16 C0.696445945,16 0,15.2836556 0,14.4 L0,3.2 Z M1.55555556,4.8 L1.55555556,14.4 L12.4444444,14.4 L12.4444444,4.8 L1.55555556,4.8 Z M3.11111111,0 L4.66666667,0 L4.66666667,1.6 L3.11111111,1.6 L3.11111111,0 Z M9.33333333,0 L10.8888889,0 L10.8888889,1.6 L9.33333333,1.6 L9.33333333,0 Z M3.11111111,7.2 L4.66666667,7.2 L4.66666667,8.8 L3.11111111,8.8 L3.11111111,7.2 Z M3.11111111,10.4 L4.66666667,10.4 L4.66666667,12 L3.11111111,12 L3.11111111,10.4 Z M6.22222222,7.2 L7.77777778,7.2 L7.77777778,8.8 L6.22222222,8.8 L6.22222222,7.2 Z M6.22222222,10.4 L7.77777778,10.4 L7.77777778,12 L6.22222222,12 L6.22222222,10.4 Z M9.33333333,7.2 L10.8888889,7.2 L10.8888889,8.8 L9.33333333,8.8 L9.33333333,7.2 Z M9.33333333,10.4 L10.8888889,10.4 L10.8888889,12 L9.33333333,12 L9.33333333,10.4 Z" id="Shape"></path>
                </g>
            </g>
        </g>
    </g>
</svg>