<svg id="Layer_1" data-name="Layer 1" xmlns="http://www.w3.org/2000/svg" width="610" height="70.72" viewBox="0 0 610 70.72"><defs><style>.cls-1,.cls-2{fill:#fff;}.cls-2{fill-rule:evenodd;}</style></defs><title>megamenu-sprite-icons</title><path class="cls-1" d="M30,28.12V10c-3.84,1.44-7.41,2.62-11.25,4.06v10C22.59,25.5,26.16,26.68,30,28.12Z"/><path class="cls-1" d="M13.75,15h0a3.75,3.75,0,0,0,0,7.5h0V30h2.5V15Z"/><path class="cls-2" d="M49.37,24.6a5.32,5.32,0,1,1,5.38,5.24h0a5.28,5.28,0,0,1-5.33-5.23ZM58,22.91l-1.25-1.12-3.38,3.67-1.14-1.12L51,25.51l2.38,2.34Z"/><path class="cls-1" d="M49.57,30H40V10H50.1l3.64,3.66v3.73A7.25,7.25,0,0,0,49.57,30Zm.75-16.67H41.88V15h8.44Zm-2.39,3.29h-6V18.3h6Z"/><path class="cls-1" d="M90,27.75l-4-2.52a4.3,4.3,0,0,0-1.84-4.69,4.18,4.18,0,0,0-5.76,1.33.56.56,0,0,1,0,.08,4.36,4.36,0,0,0,1.33,5.93,4.17,4.17,0,0,0,5-.4l4,2.52Zm-9.34-1.47a2.45,2.45,0,0,1-.74-3.35,2.37,2.37,0,0,1,3.24-.83l0,0a2.44,2.44,0,0,1,.74,3.35,2.35,2.35,0,0,1-3.23.82Z"/><path class="cls-1" d="M80.05,10H70V28.75h7.84a6,6,0,0,1-2.29-4.64A6.27,6.27,0,0,1,82,18a6.81,6.81,0,0,1,1.74.23V13.48Z"/><g id="A39oo3"><path class="cls-1" d="M110,12.22a6.08,6.08,0,0,1,3.23-2.06A5,5,0,0,1,118.58,12a6.12,6.12,0,0,1,1,6.22,11.62,11.62,0,0,1-2,3.59c-2.41,2.81-5,5.47-7.47,8.19l-.14-.14a.16.16,0,0,1-.13,0c-2.33-2.4-4.68-4.76-7-7.23a10.78,10.78,0,0,1-2.77-5.16,6.26,6.26,0,0,1,2.41-6.52,5.36,5.36,0,0,1,6.56.48C109.41,11.64,109.69,11.92,110,12.22Zm-5,9h3.74V25h2.55V21.2H115V18.7h-3.75V15h-2.54v3.75H105Z"/></g><path class="cls-1" d="M149.34,18.75a.62.62,0,0,1,.66.59v10a.63.63,0,0,1-.62.63H130.66a.63.63,0,0,1-.66-.59v-10a.62.62,0,0,1,.62-.62H135v2.42h-2.5V27.5h15V21.17H145v-2.4Z"/><polyline class="cls-1" points="141.25 25 141.25 15 144.19 17.8 146.25 15.86 140 10 133.75 15.86 135.81 17.8 138.75 15 138.75 25"/><path class="cls-1" d="M178.12,10H161.88a.63.63,0,0,0-.63.62V29.38a.63.63,0,0,0,.63.62h16.24a.63.63,0,0,0,.63-.62V10.62A.63.63,0,0,0,178.12,10ZM166.25,28.75h-2.5v-2.5h2.5Zm0-3.75h-2.5V22.5h2.5Zm0-3.75h-2.5v-2.5h2.5Zm5,7.5h-2.5v-2.5h2.5Zm0-3.75h-2.5V22.5h2.5Zm0-3.75h-2.5v-2.5h2.5Zm5,7.5h-2.5V22.5h2.5Zm0-7.5h-2.5v-2.5h2.5Zm0-3.75h-12.5v-5h12.5Z"/><path class="cls-1" d="M207.14,12.5h-.89V10.76a.76.76,0,0,0-.76-.76h-1.84a.76.76,0,0,0-.76.76V12.5H196.7V10.76A.76.76,0,0,0,196,10h-1.84a.76.76,0,0,0-.76.75h0V12.5h-.49A3,3,0,0,0,190,15.57V27.13A2.86,2.86,0,0,0,192.86,30h14.28A2.86,2.86,0,0,0,210,27.14h0V15.58A3,3,0,0,0,207.14,12.5Zm.36,15h-15V15h15Z"/><rect class="cls-1" x="195" y="17.5" width="2.5" height="2.5"/><rect class="cls-1" x="195" y="22.5" width="2.5" height="2.5"/><rect class="cls-1" x="198.8" y="17.5" width="2.45" height="2.5"/><rect class="cls-1" x="198.75" y="22.5" width="2.5" height="2.5"/><rect class="cls-1" x="202.5" y="17.5" width="2.5" height="2.5"/><rect class="cls-1" x="202.5" y="22.5" width="2.5" height="2.5"/><path class="cls-1" d="M238.75,10h-17.5A1.25,1.25,0,0,0,220,11.23V30h7.5V23.75h5V30H240V11.23A1.25,1.25,0,0,0,238.75,10Zm-10,11.25h-5V17.5h5Zm0-5h-5V12.5h5Zm7.5,5h-5V17.5h5Zm0-5h-5V12.5h5Z"/><g id="_1uT7GR" data-name=" 1uT7GR"><path class="cls-1" d="M270,20.07a1.31,1.31,0,0,0-.05-.22q-1.05-4.12-2.12-8.25c-.09-.35-.26-.42-.57-.24a10.06,10.06,0,0,1-2.09.94,21.27,21.27,0,0,1-4.48.73c-1.39.12-2.77.24-4.15.42a10.33,10.33,0,0,0-3.93,1.35.63.63,0,0,0-.32.78l2.13,8.27c.1.38.26.45.6.25a9.85,9.85,0,0,1,2.92-1.16,29.84,29.84,0,0,1,4.72-.58,28.66,28.66,0,0,0,3.68-.45,10.68,10.68,0,0,0,3.32-1.25A.64.64,0,0,0,270,20.07Zm-9.55-6.31a5,5,0,0,1,4.7,3.35,3.35,3.35,0,0,1-2.52,4.41,4.93,4.93,0,0,1-5.55-3.39A3.35,3.35,0,0,1,260.45,13.76Z"/><path class="cls-1" d="M269.64,22l-.23.1c-.53.21-1.05.44-1.59.62a21.64,21.64,0,0,1-4.85.79c-1.25.11-2.52.21-3.77.38a9.22,9.22,0,0,0-4.3,1.67c-.22.16-.45.31-.67.45s-.42.14-.5-.18c0,0,0-.08,0-.12l-2.13-8.3c0-.08,0-.17-.08-.27l-.13.05c-.31.16-.59.31-.88.48-.49.28-.55.46-.42,1l2,7.77c.18.68.35,1.37.53,2.05.08.28.25.33.48.16l.27-.23a12.51,12.51,0,0,1,4-2.29,25.25,25.25,0,0,1,5.23-.91c1.32-.13,2.63-.24,3.94-.42a8.67,8.67,0,0,0,3.06-1.07.58.58,0,0,0,.37-.6C269.85,22.76,269.74,22.4,269.64,22Z"/><path class="cls-1" d="M260.23,15.59c-.64.35-.82.71-.68,1.27a1.14,1.14,0,0,0,.58.74c.31.17.66.28,1,.43a1.91,1.91,0,0,1,.51.32.42.42,0,0,1,.1.37.44.44,0,0,1-.31.2,1.51,1.51,0,0,1-.52,0,5.31,5.31,0,0,1-.6-.22l-.21.51c-.08.16,0,.21.09.25a3,3,0,0,0,.71.24c.33,0,.51.17.54.5,0,.07.08.17.13.17a5.68,5.68,0,0,0,.59,0,2.88,2.88,0,0,0-.09-.4c-.06-.17,0-.27.14-.35a.83.83,0,0,0,.52-.66,1.21,1.21,0,0,0-.52-1.24,3.92,3.92,0,0,0-.65-.32l-.8-.31a.32.32,0,0,1-.25-.37.36.36,0,0,1,0-.09.51.51,0,0,1,.37-.21,1.52,1.52,0,0,1,.52.12,1.23,1.23,0,0,1,.26.12c.1-.16.18-.31.28-.44s.06-.2-.06-.26a2.73,2.73,0,0,0-.66-.28.43.43,0,0,1-.41-.43h0a.23.23,0,0,0,0-.14c0-.05-.1-.11-.16-.11l-.54,0Z"/></g><polygon class="cls-1" points="298.75 27.51 297.5 27.5 297.5 15 293.75 11.25 283.75 11.25 283.75 10 294.94 10 298.75 13.81 298.75 27.51"/><path class="cls-1" d="M292.45,12.46h-11.2V30h15V16.22Zm-1.2,16.29H285V22.5h6.25Zm0-10V20H285V13.75h3.75V15h-2.5v3.75H290V17.5h1.25ZM289,17.68l-1.42-1.43.71-.7.72.72,2.31-2.33.73.7Z"/><rect class="cls-1" x="286.25" y="23.75" width="3.75" height="3.75"/><path class="cls-1" d="M320,10a10,10,0,1,0,10,10A10,10,0,0,0,320,10Zm1,12.5h-2.81a5.12,5.12,0,0,1,.22-1.83,1.58,1.58,0,0,1,.41-.58c.59-.49,1.21-.94,1.8-1.43a4.44,4.44,0,0,0,.75-.75,1.72,1.72,0,0,0-.09-2.11,1.37,1.37,0,0,0-.94-.46h-.09c-1.14-.1-1.92.21-2.16,1.79,0,.11,0,.22,0,.34H315.2a4.18,4.18,0,0,1,2.66-4.27,6.23,6.23,0,0,1,5.16.45,3.62,3.62,0,0,1,1.06,5.28,10.77,10.77,0,0,1-1.56,1.38c-.23.19-.5.35-.74.53a1.76,1.76,0,0,0-.75,1.51A.92.92,0,0,1,321,22.5Zm-1.28,5a1.75,1.75,0,1,1,0-3.5,1.75,1.75,0,0,1,0,3.5Z"/><path class="cls-1" d="M352.5,30V23.13h-5V30h-5V21.25h-1.2a1.15,1.15,0,0,1-1.15-.68,1.23,1.23,0,0,1,.16-1.37c.15-.18.3-.34.46-.5l7.94-7.95a4.69,4.69,0,0,1,.47-.43,1.24,1.24,0,0,1,1.67,0,3.74,3.74,0,0,1,.31.27L353.58,13l.18.16V11.27h3.74v5.5a.45.45,0,0,0,.12.29c.53.54,1.06,1.07,1.6,1.6a2.85,2.85,0,0,1,.78,1.07v.55a1.54,1.54,0,0,0-.08.19,1.21,1.21,0,0,1-1.13.78H357.5V30Z"/><path class="cls-1" d="M388.9,14.85H390v13h-7.87c-.15,0-.21.05-.23.25-.12,1.2-1.16,2.12-2.08,1.88A2.11,2.11,0,0,1,378.27,28c0-.2-.15-.22-.29-.22h-8v-13h1.21V11.07c0-.58.25-.94.71-1a14.14,14.14,0,0,1,1.72-.07,9.26,9.26,0,0,1,3.88,1.13c.82.44,1.61,1,2.4,1.49.15.1.23,0,.31-.06a14.64,14.64,0,0,1,3.09-1.79,9.31,9.31,0,0,1,4.36-.77,2.91,2.91,0,0,1,.58.09c.45.1.63.42.63,1.07C388.9,12.28,388.9,13.75,388.9,14.85Zm-16.37-3.21V23.93c0,.23,0,.3.23.31a12.11,12.11,0,0,1,3,.63,12.53,12.53,0,0,1,3.88,2.19c.39.31.39.31.78,0a12.37,12.37,0,0,1,4.12-2.25,11.65,11.65,0,0,1,2.75-.54c.2,0,.23-.11.23-.34V11.71a12.36,12.36,0,0,0-6.79,2.66c-.13.09-.18.13-.18.28,0,1.57,0,3.44,0,5,0,1.42,0,2.83,0,4.25,0,.26-.31.39-.51.38s-.52-.12-.53-.37v-9c0-.31,0-.51-.33-.67A11.37,11.37,0,0,0,372.53,11.64Z"/><path class="cls-1" d="M417.14,30H402.86A2.86,2.86,0,0,1,400,27.14h0V15.26a2.87,2.87,0,0,1,2.86-2.87h14.28A2.87,2.87,0,0,1,420,15.26V27.13A2.86,2.86,0,0,1,417.14,30Zm.36-15h-15V27.5h15Z"/><rect class="cls-1" x="403.51" y="10" width="3.35" height="4.75" rx="0.76"/><rect class="cls-1" x="413.09" y="10" width="3.35" height="4.75" rx="0.76"/><polygon class="cls-1" points="411.53 21.2 413.97 18.76 412.33 17.13 409.89 19.56 407.46 17.13 405.82 18.76 408.26 21.2 405.82 23.63 407.46 25.27 409.89 22.83 412.33 25.27 413.97 23.63 411.53 21.2"/><path class="cls-1" d="M430,30V24.14l3.26-2.56a1.66,1.66,0,0,1,1-.39c2.6,0,5.2,0,7.82,0,.74,0,1.2.2,1.21.76s-.46.83-1.25.83h-3.2c-.43,0-.42.89,0,.89,1.59,0,3.67,0,5.25,0a1.49,1.49,0,0,0,.86-.34c1-.91,2-1.85,3.05-2.78.8-.74,1.39-.69,2,.17v.55c-.38.39-.75.8-1.15,1.17-1.18,1.11-2.39,2.19-3.57,3.31a1.79,1.79,0,0,1-1.37.52H435.1a1.3,1.3,0,0,0-1,.38Z"/><path class="cls-1" d="M445,15a5,5,0,1,1-5-5A5,5,0,0,1,445,15Zm-5.23-3.9V12a1.78,1.78,0,0,0-.71.22,1.6,1.6,0,0,0-.49.41,1.57,1.57,0,0,0-.29.56,1.72,1.72,0,0,0-.1.64,1.52,1.52,0,0,0,.08.56,1.29,1.29,0,0,0,.27.45,1.9,1.9,0,0,0,.45.34,4.37,4.37,0,0,0,.68.27l.45.14c.34.11.52.28.52.5a.48.48,0,0,1-.22.41.76.76,0,0,1-.5.15,2.2,2.2,0,0,1-1.43-.64l-.62,1.18a1.7,1.7,0,0,0,.38.26,3.12,3.12,0,0,0,.49.23,5.52,5.52,0,0,0,.54.16,2.94,2.94,0,0,0,.51.05v.94h.72v-1a3.88,3.88,0,0,0,.77-.31,1.79,1.79,0,0,0,.5-.38,1.63,1.63,0,0,0,.28-.52,2.39,2.39,0,0,0,.08-.66,1.43,1.43,0,0,0-.34-1,2.61,2.61,0,0,0-1.11-.65l-.46-.15a1.09,1.09,0,0,1-.39-.23.36.36,0,0,1,0-.61.81.81,0,0,1,.48-.13,1.59,1.59,0,0,1,1,.38l.58-1.11a3.25,3.25,0,0,0-1.42-.45v-.94Z"/><path class="cls-1" d="M460.67,25.74A.7.7,0,0,1,460,25V12.51h18.18a.69.69,0,0,1,.66.73h0a.7.7,0,0,1-.66.73H461.33V25a.69.69,0,0,1-.66.73Z"/><path class="cls-1" d="M463.39,16a.62.62,0,0,0-.58.62V26.88a.63.63,0,0,0,.58.63h16a.62.62,0,0,0,.58-.63V16.57a.62.62,0,0,0-.58-.62Zm6.35,9.71h-4.86V24h4.86Zm8-3.94H464.89V20H477.7Z"/><path class="cls-1" d="M496.59,20.16a4.19,4.19,0,0,1-.92-2.61h-.22c-3.41,0-5.45,1.63-5.45,3.27v1.83h3.38A5.5,5.5,0,0,1,496.59,20.16Z"/><path class="cls-1" d="M498.12,13.71a2.74,2.74,0,0,0-2.67-2.46,2.77,2.77,0,0,0-2.73,2.81h0a2.75,2.75,0,0,0,2.71,2.81h0a1.33,1.33,0,0,0,.28,0A4.15,4.15,0,0,1,498.12,13.71Z"/><path class="cls-1" d="M500.62,21.07c-.31,0-.62-.05-.93-.05-3.41,0-5.45,1.64-5.45,3.28v1.82h3.66a5.11,5.11,0,0,1,3.54-3.33A4.22,4.22,0,0,1,500.62,21.07Z"/><path class="cls-1" d="M500.53,20.16a4.18,4.18,0,0,1,1.76-3.44,2.72,2.72,0,0,0-2.6-2,2.81,2.81,0,0,0,0,5.6,2.63,2.63,0,0,0,.83-.14Z"/><path class="cls-1" d="M510,26.92c0-1.64-2.14-3.27-5.45-3.27s-5.45,1.63-5.45,3.27v1.83H510Z"/><ellipse class="cls-1" cx="504.55" cy="20.16" rx="2.73" ry="2.8"/><circle class="cls-1" cx="528.8" cy="15" r="5"/><path class="cls-1" d="M532.8,28h-4V20.9c-5.5.4-8.8,3.1-8.8,5.8V30h12.8Z"/><rect class="cls-1" x="530" y="22.5" width="10" height="2.5"/><rect class="cls-1" x="533.8" y="18.8" width="2.5" height="10"/><path class="cls-1" d="M570,12.81V24.38c0,.62,0,.62-.6.62-5.55,0-9.38,0-14.94,0a1.5,1.5,0,0,0-1.06.4c-.59.61-2.6,3.68-3.31,4.62l-.09-.07V12.84c.14.09.26.15.36.23,3,2.07,6,4.58,9,6.65.53.37.72.37,1.26,0,3-2.06,5.94-4.56,8.93-6.62Z"/><path class="cls-1" d="M550,10h20l-.34.29s-6.31,4.84-9.33,7.05c-.21.15-.37.24-.63.05"/><polygon class="cls-1" points="594.27 10 585 10 585 11.25 592.5 11.25 596.25 15 596.25 27.5 597.5 27.5 597.5 13.23 594.27 10"/><path class="cls-1" d="M582.5,12.5V30H595V16.25l-3.75-3.75Zm6.25,3.75a2.5,2.5,0,1,1-2.5,2.5A2.5,2.5,0,0,1,588.75,16.25Zm5,8.75v1.25h-10V25s1.19-2.5,5-2.5S593.75,25,593.75,25Z"/><path class="cls-1" d="M30,50A10,10,0,1,1,20,40,10,10,0,0,1,30,50ZM19.55,42.19v1.87a3.6,3.6,0,0,0-1.4.41,3.44,3.44,0,0,0-1.59,2,4.33,4.33,0,0,0-.19,1.29,3.33,3.33,0,0,0,.17,1.13,2.33,2.33,0,0,0,.53.88,3.31,3.31,0,0,0,.92.69,7.92,7.92,0,0,0,1.35.54l.89.28c.68.22,1,.55,1,1a1,1,0,0,1-.43.81,1.63,1.63,0,0,1-1,.31A4.36,4.36,0,0,1,17,52.08l-1.25,2.35a4,4,0,0,0,.75.54,8.83,8.83,0,0,0,1,.45,8.15,8.15,0,0,0,1.07.31,6,6,0,0,0,1,.12V57.7H21V55.77a8.59,8.59,0,0,0,1.54-.63,3.73,3.73,0,0,0,1-.79,2.87,2.87,0,0,0,.56-1A4.51,4.51,0,0,0,24.28,52a2.87,2.87,0,0,0-.7-2,5.23,5.23,0,0,0-2.23-1.3l-.92-.31a2.3,2.3,0,0,1-.77-.45.83.83,0,0,1-.3-.6.76.76,0,0,1,.37-.62,1.69,1.69,0,0,1,1-.28,3.22,3.22,0,0,1,2,.77L23.81,45A6.47,6.47,0,0,0,21,44.06V42.19Z"/><path class="cls-1" d="M59.81,52.63a.51.51,0,0,1,.13.63l-2.06,3.47a.5.5,0,0,1-.62.22l-2.57-1a7.85,7.85,0,0,1-1.74,1l-.39,2.66a.48.48,0,0,1-.5.42H48a.49.49,0,0,1-.51-.42l-.39-2.65a7.67,7.67,0,0,1-1.74-1l-2.56,1a.54.54,0,0,1-.63-.22l-2-3.45a.49.49,0,0,1,.12-.63L42.36,51a6.59,6.59,0,0,1-.07-1,6.37,6.37,0,0,1,.07-1l-2.17-1.65a.48.48,0,0,1-.12-.63l2-3.47a.51.51,0,0,1,.63-.22l2.56,1a7.85,7.85,0,0,1,1.74-1l.39-2.65A.49.49,0,0,1,48,40h4.11a.5.5,0,0,1,.5.42L53,43.07a7.67,7.67,0,0,1,1.74,1l2.56-1a.53.53,0,0,1,.62.22l2.06,3.46a.49.49,0,0,1-.12.63L57.64,49c0,.32.07.65.08,1a7.93,7.93,0,0,1-.08,1Zm-10.12-8.7v1.44a2.74,2.74,0,0,0-1.08.31,2.6,2.6,0,0,0-1.21,1.48,3.28,3.28,0,0,0-.15,1,2.56,2.56,0,0,0,.14.87,1.86,1.86,0,0,0,.39.68,2.46,2.46,0,0,0,.71.52,6.18,6.18,0,0,0,1,.42l.68.21c.52.17.77.43.77.78a.71.71,0,0,1-.31.62,1.24,1.24,0,0,1-.77.24,3.41,3.41,0,0,1-2.19-1l-1,1.8a2.9,2.9,0,0,0,.58.41,6.41,6.41,0,0,0,.75.35,7.84,7.84,0,0,0,.83.23,3.48,3.48,0,0,0,.79.09v1.41h1.09V54.31A6,6,0,0,0,52,53.83a2.58,2.58,0,0,0,.78-.61,1.93,1.93,0,0,0,.43-.78,3.15,3.15,0,0,0,.13-1,2.18,2.18,0,0,0-.52-1.53,4.08,4.08,0,0,0-1.7-1l-.7-.23a1.64,1.64,0,0,1-.6-.35.62.62,0,0,1-.23-.45.57.57,0,0,1,.29-.47,1.18,1.18,0,0,1,.73-.21,2.44,2.44,0,0,1,1.5.58l.88-1.71a4.78,4.78,0,0,0-2.17-.69V43.93Z"/><g id="K1KR1q.tif"><path class="cls-1" d="M74.38,40h.23c.45.44.92.87,1.36,1.33a.42.42,0,0,0,.59.12.49.49,0,0,0,.13-.12c.44-.46.9-.89,1.36-1.33h.23c.47.44.92.87,1.36,1.33a.42.42,0,0,0,.59.12.37.37,0,0,0,.13-.12c.44-.46.91-.89,1.36-1.33H82c.46.44.92.87,1.36,1.33a.42.42,0,0,0,.59.13.4.4,0,0,0,.13-.13c.44-.46.91-.89,1.36-1.33h.24c.37.36.75.72,1.11,1.09a.66.66,0,0,1,.14.38V58.53a.59.59,0,0,1-.14.38c-.36.37-.74.73-1.11,1.09h-.24c-.45-.44-.92-.87-1.36-1.33a.42.42,0,0,0-.59-.12.49.49,0,0,0-.13.12c-.44.46-.9.89-1.36,1.33h-.23c-.45-.44-.92-.87-1.36-1.33a.42.42,0,0,0-.59-.12.37.37,0,0,0-.13.12c-.44.46-.89.89-1.36,1.33h-.23c-.46-.44-.92-.87-1.36-1.33a.42.42,0,0,0-.59-.12.3.3,0,0,0-.13.12c-.44.46-.91.89-1.36,1.33h-.23c-.38-.36-.76-.72-1.12-1.09a.58.58,0,0,1-.13-.38V41.47a.53.53,0,0,1,.13-.38C73.62,40.72,74,40.36,74.38,40Zm5,10.09a2.44,2.44,0,0,0,0,.54.4.4,0,0,0,.16.28.63.63,0,0,0,.87-.17.64.64,0,0,0,.1-.38.43.43,0,0,1,.33-.5h0a1.57,1.57,0,0,0,1.08-1,1.52,1.52,0,0,0-.8-1.94c-.44-.24-.93-.4-1.37-.65a.66.66,0,0,1-.33-.52.65.65,0,0,1,.49-.4,8.54,8.54,0,0,1,1.23.12c.13,0,.34,0,.39-.07.36-.58.23-.89-.42-1l-.16,0c-.31,0-.44-.11-.41-.44s-.25-.41-.56-.41-.62,0-.57.42-.09.51-.43.63a1.47,1.47,0,0,0-1,1.4,1.46,1.46,0,0,0,.82,1.36,4.93,4.93,0,0,0,.71.31,6.36,6.36,0,0,1,.71.31c.24.12.49.34.37.61a.84.84,0,0,1-.56.45,3.83,3.83,0,0,1-1.22-.11c-.63-.16-.63-.19-.79.46a.24.24,0,0,1,0,.08c-.1.24,0,.37.23.43ZM80,53.75h4.25c.49,0,.78-.23.79-.62s-.29-.63-.77-.63H75.77c-.49,0-.77.24-.77.63s.3.62.79.62Zm0,2.5h4.25c.46,0,.74-.24.75-.62s-.28-.63-.73-.63H75.81c-.52,0-.82.24-.81.63s.31.62.83.62Z"/></g><path class="cls-1" d="M118.75,56.8c0-2.88-3.44-5.76-8.75-5.76-5.47,0-8.75,2.88-8.75,5.76V60h17.5Z"/><ellipse class="cls-1" cx="109.8" cy="44.92" rx="4.8" ry="4.92"/><path class="cls-1" d="M148.49,45.88h-1.17V44a1.39,1.39,0,0,0-1.51-1.21H133.75V54.57a3.18,3.18,0,0,1-1.93-1.25V41.56h11.75v-.41a1.39,1.39,0,0,0-1.52-1.21H131.52A1.39,1.39,0,0,0,130,41.15V53.28s-.23,2.44,3.81,3.13a1.14,1.14,0,0,0,.23.38h0l2.77,2.74h0a1.64,1.64,0,0,0,1.14.41h10.54a1.38,1.38,0,0,0,1.51-1.2V47.07A1.37,1.37,0,0,0,148.49,45.88Zm-2.86,0h-7.7l-1.86-1.69h9.56Z"/><path class="cls-2" d="M180,57.52H162.5V40H160V58.75A1.25,1.25,0,0,0,161.25,60H180Z"/><path class="cls-1" d="M178.27,45.93a1.72,1.72,0,0,0-1.72,1.72,1.68,1.68,0,0,0,.14.7l-1.85,1.92a1.86,1.86,0,0,0-.58-.1,2,2,0,0,0-.59.1L172.47,49a1.72,1.72,0,1,0-3.33-.64,1.66,1.66,0,0,0,.14.66l-2.55,2.67a1.63,1.63,0,0,0-.57-.1,1.73,1.73,0,1,0,1.72,1.73h0a1.81,1.81,0,0,0-.14-.69L170.28,50a1.67,1.67,0,0,0,.59.11,1.88,1.88,0,0,0,.62-.11l1.19,1.24a1.8,1.8,0,0,0-.14.68,1.73,1.73,0,0,0,3.44,0,1.71,1.71,0,0,0-.14-.67l1.88-2a1.54,1.54,0,0,0,.56.1,1.73,1.73,0,0,0,0-3.44Z"/><path class="cls-1" d="M207.16,42.71h-.88v-2a.76.76,0,0,0-.76-.76h-1.85a.76.76,0,0,0-.75.76v2h-6.19v-2A.76.76,0,0,0,196,40h-1.83a.76.76,0,0,0-.76.75h0v2h-.49A2.86,2.86,0,0,0,190,45.57V57.13A2.86,2.86,0,0,0,192.89,60h14.27A2.87,2.87,0,0,0,210,57.14h0V45.58a2.86,2.86,0,0,0-2.87-2.87Zm.37,14.82h-15V45.81h15Z"/><polygon class="cls-1" points="198.86 55.47 195.77 52.38 197.4 50.75 198.77 52.13 203.1 47.37 204.82 48.94 198.86 55.47"/><path class="cls-2" d="M224.33,45.53v.69H223a1.74,1.74,0,0,0-1.75,1.72h0V58.22A1.74,1.74,0,0,0,223,59.94h14a1.73,1.73,0,0,0,1.75-1.71h0V47.94A1.73,1.73,0,0,0,237,46.22H235.7v-.69A5.63,5.63,0,0,0,230,39.94h0a5.63,5.63,0,0,0-5.68,5.57Zm2.18.69v-.69a3.5,3.5,0,1,1,7,0v.69Zm1.27,11.47.76-4.06a2.75,2.75,0,0,1-1.29-2.33,2.83,2.83,0,1,1,5.65,0,2.75,2.75,0,0,1-1.29,2.33s.45,2.13.76,4.06Z"/><circle class="cls-1" cx="258.76" cy="45" r="5"/><path class="cls-1" d="M259.08,54.61A5.46,5.46,0,0,1,260.45,51a13.25,13.25,0,0,0-1.54-.09c-5.41,0-8.91,2.94-8.91,5.89V60h13.51A5.5,5.5,0,0,1,259.08,54.61Z"/><path class="cls-1" d="M269.88,58.3l-3.05-3a3.13,3.13,0,0,0-5.06-3.52l2.68,1.38-.92,1.78-2.65-1.35a3.14,3.14,0,0,0,2.68,3.52,3.24,3.24,0,0,0,1.66-.23l3,3a.4.4,0,0,0,.57,0l0,0,1-1a.38.38,0,0,0,.1-.53A.15.15,0,0,0,269.88,58.3Z"/><path class="cls-1" d="M280,40h20l-.35.29s-6.3,4.85-9.32,7.05c-.21.15-.37.24-.63,0"/><path class="cls-1" d="M280,42.77l9.36,6.95a.85.85,0,0,0,1.26,0L300,42.8V54.37a.57.57,0,0,1-.6.62H280.63a.59.59,0,0,1-.63-.65Z"/><path class="cls-1" d="M281.25,55.94h17.5a0,0,0,0,1,0,0v.31a1.25,1.25,0,0,1-1.25,1.25h-15a1.25,1.25,0,0,1-1.25-1.25v-.31A0,0,0,0,1,281.25,55.94Z"/><path class="cls-1" d="M282.5,58.44h15a0,0,0,0,1,0,0v.31A1.25,1.25,0,0,1,296.25,60h-12.5a1.25,1.25,0,0,1-1.25-1.25v-.31a0,0,0,0,1,0,0Z"/><path class="cls-1" d="M325.46,53.36h-1.69a1.79,1.79,0,0,1-1.72-1.31,1.78,1.78,0,0,1-2-.81l-.86-1.45a1.8,1.8,0,0,1,.27-2.11,1.76,1.76,0,0,1-.24-2.16l.83-1.39a1.77,1.77,0,0,1,2-.82,1.75,1.75,0,0,1,.35-.66,5.88,5.88,0,0,0-1.55-.6V41.4a1.51,1.51,0,0,0-3,0v.65a5.92,5.92,0,0,0-4.53,6.13V53l-2,1.94v1H327.4V55l-1.7-1.63Z"/><path class="cls-1" d="M319.34,59.94A2.69,2.69,0,0,0,322,57.27h-5.37A2.67,2.67,0,0,0,319.34,59.94Z"/><path class="cls-1" d="M327.75,47.87c0-.13,0-.26,0-.4s0-.27,0-.4l.88-.68a.2.2,0,0,0,.06-.26l-.85-1.42a.21.21,0,0,0-.25-.09l-1,.41a3.16,3.16,0,0,0-.72-.4l-.16-1.09a.2.2,0,0,0-.2-.17h-1.69a.2.2,0,0,0-.2.17l-.16,1.09a3.16,3.16,0,0,0-.72.4l-1.05-.41a.2.2,0,0,0-.25.09l-.85,1.42a.19.19,0,0,0,.06.26l.88.68c0,.13,0,.26,0,.4s0,.27,0,.4l-.88.68a.19.19,0,0,0-.06.26l.85,1.42a.21.21,0,0,0,.25.09l1.05-.41a3.16,3.16,0,0,0,.72.4l.16,1.08a.2.2,0,0,0,.2.18h1.69a.2.2,0,0,0,.2-.18l.16-1.08a3.16,3.16,0,0,0,.72-.4l1,.41a.21.21,0,0,0,.25-.09l.85-1.42a.2.2,0,0,0-.06-.26Zm-3.14,1a1.44,1.44,0,1,1,1.48-1.43A1.45,1.45,0,0,1,324.61,48.9Z"/><path class="cls-1" d="M356.12,51.33h-2a2.13,2.13,0,0,1-.45-.06v1.5h-4.14V49.9h2.72a.84.84,0,0,1-.05-.17l-.06,0a2,2,0,0,1-2.34-.84l-1-1.7a1.9,1.9,0,0,1,.44-2.39,1.9,1.9,0,0,1-.66-1.77h-7.47a1.05,1.05,0,0,0-1.06,1V60h6.25V55h4.12v5H357V51.13A2,2,0,0,1,356.12,51.33Zm-8.83,1.44h-4.14V49.9h4.14Zm0-4.69h-4.14V45.21h4.14Z"/><path class="cls-1" d="M358.84,45.3a3.57,3.57,0,0,0,0-.47,3.43,3.43,0,0,0,0-.47l1.07-.8a.24.24,0,0,0,.06-.31l-1-1.67a.26.26,0,0,0-.31-.11l-1.26.49a3.39,3.39,0,0,0-.85-.48l-.19-1.28a.25.25,0,0,0-.25-.2h-2a.25.25,0,0,0-.25.2l-.19,1.28a3.73,3.73,0,0,0-.85.48l-1.26-.49a.25.25,0,0,0-.31.11l-1,1.67a.24.24,0,0,0,.06.31l1.07.8a2.78,2.78,0,0,0,0,.94l-1.07.8a.24.24,0,0,0-.06.31l1,1.67a.27.27,0,0,0,.31.1l1.26-.48a3.73,3.73,0,0,0,.85.48l.19,1.28a.25.25,0,0,0,.25.2h2a.25.25,0,0,0,.25-.2l.19-1.28a4.15,4.15,0,0,0,.85-.48l1.26.48a.25.25,0,0,0,.31-.1l1-1.67a.24.24,0,0,0-.06-.31Zm-3.75,1.22a1.69,1.69,0,1,1,1.77-1.69A1.74,1.74,0,0,1,355.09,46.52Z"/></svg>