<?xml version="1.0" encoding="UTF-8"?>
<svg width="27px" height="31px" viewBox="0 0 27 31" version="1.1" xmlns="http://www.w3.org/2000/svg" xmlns:xlink="http://www.w3.org/1999/xlink">
    <title>noun-delete-document-1235794</title>
    <g id="Page-1" stroke="none" stroke-width="1" fill="none" fill-rule="evenodd" opacity="0.5">
        <g id="Search-vendor" transform="translate(-370.000000, -294.000000)" fill="#000000" fill-rule="nonzero">
            <g id="noun-delete-document-1235794" transform="translate(370.000000, 294.000000)">
                <path d="M21.8736874,4.62432212 L17.3601507,0.0956553644 C17.2969607,0.0318110892 17.2022857,0 17.1076106,0 L0.378700147,0 C0.189350074,0 0,0.15949964 0,0.382621458 L0,27.6173785 C0,27.8086893 0.157865002,28 0.378700147,28 L12.6886531,28 C12.8780032,28 13.0673533,27.8405004 13.0673533,27.6173785 C13.0673533,27.4260678 12.9094883,27.2347571 12.6886531,27.2347571 L0.757467932,27.2349796 L0.757467932,0.733711269 L16.7288428,0.733711269 L16.7288428,5.2939841 L21.2423795,5.2939841 L21.2423795,16.5833331 C21.2423795,16.7746438 21.4002445,16.9659545 21.6210797,16.9659545 C21.8104298,16.9659545 21.9997798,16.8064549 21.9997798,16.5833331 L22,4.9112943 C21.9685155,4.81563894 21.9370299,4.71998357 21.8738399,4.62432821 L21.8736874,4.62432212 Z M17.4862939,1.24372475 L20.737384,4.52847882 L17.4862939,4.52847882 L17.4862939,1.24372475 Z" id="Shape"></path>
                <path d="M20.5,31 C16.9094685,31 14,28.0904209 14,24.5 C14,20.9094685 16.9095791,18 20.5,18 C24.0905315,18 27,20.9095791 27,24.5 C27,28.0905315 24.0904209,31 20.5,31 Z M20.5,18.7119048 C17.3119048,18.7119048 14.7119048,21.3118495 14.7119048,24.5 C14.7119048,27.6880952 17.3118495,30.2880952 20.5,30.2880952 C23.6880952,30.2880952 26.2880952,27.6881505 26.2880952,24.5 C26.2880952,21.3119048 23.6881505,18.7119048 20.5,18.7119048 L20.5,18.7119048 Z" id="Shape"></path>
                <path d="M18.6137477,8 L3.38625225,8 C3.19312613,8 3,7.79156992 3,7.5 C3,7.25 3.16101317,7 3.38625225,7 L18.6137477,7 C18.8068739,7 19,7.20843008 19,7.5 C19,7.79156992 18.8068739,8 18.6137477,8 Z" id="Path"></path>
                <path d="M18.6137477,14 L3.38625225,14 C3.19312613,14 3,13.7915699 3,13.5 C3,13.2081398 3.16101317,13 3.38625225,13 L18.6137477,13 C18.8068739,13 19,13.2084301 19,13.5 C19,13.7915699 18.8068739,14 18.6137477,14 Z" id="Path"></path>
                <path d="M18.6137477,17 L3.38625225,17 C3.19312613,17 3,16.7915699 3,16.5 C3,16.2081398 3.16101317,16 3.38625225,16 L18.6137477,16 C18.8068739,16 19,16.2084301 19,16.5 C19,16.7915699 18.8068739,17 18.6137477,17 Z" id="Path"></path>
                <path d="M18.6137477,11 L3.38625225,11 C3.19312613,11 3,10.7915699 3,10.5 C3,10.2081398 3.16101317,10 3.38625225,10 L18.6137477,10 C18.8068739,10 19,10.2084301 19,10.5 C19,10.7915699 18.8068739,11 18.6137477,11 Z" id="Path"></path>
                <path d="M13.5926548,20 L3.37600581,20 C3.18800291,20 3,19.7915699 3,19.5 C3,19.25 3.15674184,19 3.37600581,19 L13.6239942,19 C13.8119971,19 14,19.2084301 14,19.5 C13.9687395,19.7915699 13.8119971,20 13.5925205,20 L13.5926548,20 Z" id="Path"></path>
                <path d="M10.6015917,22 L3.36775645,22 C3.18387822,22 3,21.7915699 3,21.5 C3,21.25 3.15330301,21 3.36775645,21 L10.6322436,21 C10.8161218,21 11,21.2084301 11,21.5 C10.9694253,21.7915699 10.8161218,22 10.6016738,22 L10.6015917,22 Z" id="Path"></path>
                <path d="M20.5596726,24.0124498 L21.876501,22.6874243 C22.0411663,22.521734 22.0411663,22.2899521 21.876501,22.1242677 C21.7118358,21.9585774 21.4814878,21.9585774 21.3168284,22.1242677 L20,23.4492933 L18.6831716,22.1242677 C18.5185063,21.9585774 18.2881584,21.9585774 18.123499,22.1242677 C17.9588337,22.289958 17.9588337,22.5217399 18.123499,22.6874243 L19.4403274,24.0124498 L18.123499,25.3374754 C17.9588337,25.5031657 17.9588337,25.7349476 18.123499,25.900632 C18.1894109,25.9669542 18.2881642,26 18.3869176,26 C18.4856709,26 18.5844242,25.9669548 18.6503361,25.900632 L19.9671645,24.5756064 L21.2839929,25.900632 C21.3499049,25.9669542 21.4486582,26 21.5474115,26 C21.6461648,26 21.7449181,25.9669548 21.8108301,25.900632 C21.9754954,25.7349416 21.9754954,25.5031598 21.8108301,25.3374754 L20.5596726,24.0124498 Z" id="Path"></path>
            </g>
        </g>
    </g>
</svg>