<?xml version="1.0" encoding="UTF-8"?>
<svg width="19px" height="20px" viewBox="0 0 19 20" version="1.1" xmlns="http://www.w3.org/2000/svg" xmlns:xlink="http://www.w3.org/1999/xlink">
    <title>FFEE4675-01ED-4FBA-9220-6F93561B2BCB</title>
    <g id="Page-1" stroke="none" stroke-width="1" fill="none" fill-rule="evenodd">
        <g id="Search-vendor-2" transform="translate(-708.000000, -195.000000)">
            <g id="Group-19" transform="translate(528.000000, 187.000000)">
                <g id="search-icon" transform="translate(181.476013, 10.137962)">
                    <circle id="Oval" stroke="#55555A" stroke-width="2" transform="translate(8.023987, 8.023987) rotate(-45.000000) translate(-8.023987, -8.023987) " cx="8.02398672" cy="8.02398672" r="5.67381542"></circle>
                    <path d="M14.0531755,10.0511943 L14.1433282,10.0484731 C14.6794309,10.0322911 15.1271462,10.4537702 15.1433282,10.9898729 C15.1439176,11.0094019 15.1439176,11.0289441 15.1433282,11.0484731 L14.9849872,16.2942455 C14.9690311,16.8228657 14.5442334,17.2476634 14.0156132,17.2636195 L13.9254605,17.2663407 C13.3893578,17.2825227 12.9416425,16.8610436 12.9254605,16.3249409 C12.9248711,16.3054119 12.9248711,16.2858697 12.9254605,16.2663407 L13.0838015,11.0205683 C13.0997576,10.4919481 13.5245553,10.0671504 14.0531755,10.0511943 Z" id="Rectangle" fill="#55555A" transform="translate(14.034394, 13.657407) rotate(-45.000000) translate(-14.034394, -13.657407) "></path>
                </g>
            </g>
        </g>
    </g>
</svg>