<?xml version="1.0" encoding="UTF-8"?>
<svg width="14px" height="14px" viewBox="0 0 14 14" version="1.1" xmlns="http://www.w3.org/2000/svg" xmlns:xlink="http://www.w3.org/1999/xlink">
    <title>B6B4192E-8370-41F3-8636-B07A5B374901</title>
    <g id="Page-1" stroke="none" stroke-width="1" fill="none" fill-rule="evenodd">
        <g id="ds-iconography-other-icons" transform="translate(-609.000000, -245.000000)">
            <g id="icon/status/terminated" transform="translate(609.000000, 245.000000)">
                <circle id="Oval" fill="#D74E53" cx="7" cy="7" r="7"></circle>
                <path d="M9.60355339,4.35355339 L9.64644661,4.39644661 C9.84170876,4.59170876 9.84170876,4.90829124 9.64644661,5.10355339 L5.10355339,9.64644661 C4.90829124,9.84170876 4.59170876,9.84170876 4.39644661,9.64644661 L4.35355339,9.60355339 C4.15829124,9.40829124 4.15829124,9.09170876 4.35355339,8.89644661 L8.89644661,4.35355339 C9.09170876,4.15829124 9.40829124,4.15829124 9.60355339,4.35355339 Z" id="Rectangle" fill="#FFFFFF"></path>
                <path d="M4.35355339,4.39644661 L4.39644661,4.35355339 C4.59170876,4.15829124 4.90829124,4.15829124 5.10355339,4.35355339 L9.64644661,8.89644661 C9.84170876,9.09170876 9.84170876,9.40829124 9.64644661,9.60355339 L9.60355339,9.64644661 C9.40829124,9.84170876 9.09170876,9.84170876 8.89644661,9.64644661 L4.35355339,5.10355339 C4.15829124,4.90829124 4.15829124,4.59170876 4.35355339,4.39644661 Z" id="Rectangle-Copy" fill="#FFFFFF"></path>
            </g>
        </g>
    </g>
</svg>